<svg width="448" height="512" xmlns="http://www.w3.org/2000/svg">
 <!--! Font Awesome Pro 6.4.2 by @fontawesome - https://fontawesome.com License - https://fontawesome.com/license (Commercial License) Copyright 2023 Fonticons, Inc. -->

 <g>
  <title>background</title>
  <rect fill="none" id="canvas_background" height="402" width="582" y="-1" x="-1"/>
 </g>
 <g>
  <title>Layer 1</title>
  <path fill="#b6d548" id="svg_1" d="m0,96c0,-17.7 14.3,-32 32,-32l384,0c17.7,0 32,14.3 32,32s-14.3,32 -32,32l-384,0c-17.7,0 -32,-14.3 -32,-32zm0,160c0,-17.7 14.3,-32 32,-32l384,0c17.7,0 32,14.3 32,32s-14.3,32 -32,32l-384,0c-17.7,0 -32,-14.3 -32,-32zm448,160c0,17.7 -14.3,32 -32,32l-384,0c-17.7,0 -32,-14.3 -32,-32s14.3,-32 32,-32l384,0c17.7,0 32,14.3 32,32z"/>
 </g>
</svg>