<svg width="122.88000000000001" height="122.89" xmlns="http://www.w3.org/2000/svg">

 <g>
  <title>background</title>
  <rect fill="none" id="canvas_background" height="402" width="582" y="-1" x="-1"/>
 </g>
 <g>
  <title>Layer 1</title>
  <path fill="#b6d548" id="svg_2" d="m49.06,1.27c2.17,-0.45 4.34,-0.77 6.48,-0.98c2.2,-0.21 4.38,-0.31 6.53,-0.29c1.21,0.01 2.18,1 2.17,2.21c-0.01,0.93 -0.6,1.72 -1.42,2.03c-9.15,3.6 -16.47,10.31 -20.96,18.62c-4.42,8.17 -6.1,17.88 -4.09,27.68l0.01,0.07c2.29,11.06 8.83,20.15 17.58,25.91c8.74,5.76 19.67,8.18 30.73,5.92l0.07,-0.01c7.96,-1.65 14.89,-5.49 20.3,-10.78c5.6,-5.47 9.56,-12.48 11.33,-20.16c0.27,-1.18 1.45,-1.91 2.62,-1.64c0.89,0.21 1.53,0.93 1.67,1.78c2.64,16.2 -1.35,32.07 -10.06,44.71c-8.67,12.58 -22.03,21.97 -38.18,25.29c-16.62,3.42 -33.05,-0.22 -46.18,-8.86c-13.14,-8.67 -22.97,-22.32 -26.39,-38.94c-3.34,-16.23 0.05,-32.28 8.26,-45.25c8.25,-13.01 21.35,-22.94 37.38,-26.83c0.31,-0.08 0.67,-0.16 1.06,-0.25l0.01,0l0,0l1.08,-0.23l0,0zm2.8,3.93c-0.64,0.11 -1.28,0.23 -1.91,0.36l-1.01,0.22l0,0c-0.29,0.07 -0.63,0.14 -1,0.23c-14.88,3.61 -27.05,12.83 -34.7,24.92c-7.63,12.05 -10.78,26.95 -7.68,42.01c3.18,15.43 12.31,28.11 24.51,36.15c12.19,8.03 27.45,11.41 42.88,8.23c15,-3.09 27.41,-11.81 35.46,-23.49c6.27,-9.09 9.9,-19.98 10.09,-31.41c-2.27,4.58 -5.3,8.76 -8.96,12.34c-6,5.86 -13.69,10.13 -22.51,11.95l-0.01,0c-12.26,2.52 -24.38,-0.16 -34.07,-6.54c-9.68,-6.38 -16.93,-16.45 -19.45,-28.7l0,-0.01c-2.25,-10.88 -0.4,-21.64 4.5,-30.69c3.32,-6.14 8.05,-11.5 13.86,-15.57l0,0z"/>
 </g>
</svg>