<svg width="50" height="50" xmlns="http://www.w3.org/2000/svg">

 <g>
  <title>background</title>
  <rect fill="none" id="canvas_background" height="402" width="582" y="-1" x="-1"/>
 </g>
 <g>
  <title>Layer 1</title>
  <path fill="#ffffff" id="svg_1" d="m24.90625,3.96875c-0.042969,0.007813 -0.085937,0.019531 -0.125,0.03125c-0.464844,0.105469 -0.792969,0.523438 -0.78125,1l0,6c-0.003906,0.359375 0.183594,0.695313 0.496094,0.878906c0.3125,0.179688 0.695312,0.179688 1.007812,0c0.3125,-0.183593 0.5,-0.519531 0.496094,-0.878906l0,-6c0.011719,-0.289062 -0.105469,-0.566406 -0.3125,-0.761719c-0.210937,-0.199218 -0.496094,-0.296875 -0.78125,-0.269531zm-14.25,5.875c-0.375,0.066406 -0.675781,0.339844 -0.78125,0.703125c-0.105469,0.367188 0.003906,0.757813 0.28125,1.015625l4.25,4.25c0.242188,0.296875 0.628906,0.433594 1.003906,0.347656c0.371094,-0.085937 0.664063,-0.378906 0.75,-0.75c0.085938,-0.375 -0.050781,-0.761718 -0.347656,-1.003906l-4.25,-4.25c-0.207031,-0.222656 -0.507812,-0.335937 -0.8125,-0.3125c-0.03125,0 -0.0625,0 -0.09375,0zm28.375,0c-0.226562,0.03125 -0.4375,0.144531 -0.59375,0.3125l-4.25,4.25c-0.296875,0.242188 -0.433594,0.628906 -0.347656,1.003906c0.085937,0.371094 0.378906,0.664063 0.75,0.75c0.375,0.085938 0.761719,-0.050781 1.003906,-0.347656l4.25,-4.25c0.3125,-0.296875 0.402344,-0.761719 0.21875,-1.152344c-0.1875,-0.394531 -0.601562,-0.621093 -1.03125,-0.566406zm-14.125,5.15625c-0.03125,0.007813 -0.0625,0.019531 -0.09375,0.03125c-0.0625,0.003906 -0.125,0.015625 -0.1875,0.03125c-0.011719,0.011719 -0.019531,0.019531 -0.03125,0.03125c-5.304687,0.226563 -9.59375,4.546875 -9.59375,9.90625c0,5.503906 4.496094,10 10,10c5.503906,0 10,-4.496094 10,-10c0,-5.339844 -4.253906,-9.644531 -9.53125,-9.90625c-0.035156,0 -0.058594,-0.03125 -0.09375,-0.03125c-0.101562,-0.039062 -0.207031,-0.058594 -0.3125,-0.0625c-0.019531,0 -0.042969,0 -0.0625,0c-0.03125,0 -0.0625,0 -0.09375,0zm0.03125,2c0.019531,0 0.042969,0 0.0625,0c0.03125,0 0.0625,0 0.09375,0c4.375,0.050781 7.90625,3.613281 7.90625,8c0,4.421875 -3.578125,8 -8,8c-4.417969,0 -8,-3.578125 -8,-8c0,-4.398437 3.546875,-7.964844 7.9375,-8zm-20.21875,7c-0.550781,0.078125 -0.9375,0.589844 -0.859375,1.140625c0.078125,0.550781 0.589844,0.9375 1.140625,0.859375l6,0c0.359375,0.003906 0.695313,-0.183594 0.878906,-0.496094c0.179688,-0.3125 0.179688,-0.695312 0,-1.007812c-0.183593,-0.3125 -0.519531,-0.5 -0.878906,-0.496094l-6,0c-0.03125,0 -0.0625,0 -0.09375,0c-0.03125,0 -0.0625,0 -0.09375,0c-0.03125,0 -0.0625,0 -0.09375,0zm34,0c-0.550781,0.078125 -0.9375,0.589844 -0.859375,1.140625c0.078125,0.550781 0.589844,0.9375 1.140625,0.859375l6,0c0.359375,0.003906 0.695313,-0.183594 0.878906,-0.496094c0.179688,-0.3125 0.179688,-0.695312 0,-1.007812c-0.183593,-0.3125 -0.519531,-0.5 -0.878906,-0.496094l-6,0c-0.03125,0 -0.0625,0 -0.09375,0c-0.03125,0 -0.0625,0 -0.09375,0c-0.03125,0 -0.0625,0 -0.09375,0zm-23.71875,9.875c-0.226562,0.03125 -0.4375,0.144531 -0.59375,0.3125l-4.25,4.25c-0.296875,0.242188 -0.433594,0.628906 -0.347656,1.003906c0.085937,0.371094 0.378906,0.664063 0.75,0.75c0.375,0.085938 0.761719,-0.050781 1.003906,-0.347656l4.25,-4.25c0.296875,-0.285156 0.386719,-0.726562 0.226563,-1.105469c-0.15625,-0.378906 -0.535157,-0.621093 -0.945313,-0.613281c-0.03125,0 -0.0625,0 -0.09375,0zm19.6875,0c-0.375,0.066406 -0.675781,0.339844 -0.78125,0.703125c-0.105469,0.367188 0.003906,0.757813 0.28125,1.015625l4.25,4.25c0.242188,0.296875 0.628906,0.433594 1.003906,0.347656c0.371094,-0.085937 0.664063,-0.378906 0.75,-0.75c0.085938,-0.375 -0.050781,-0.761718 -0.347656,-1.003906l-4.25,-4.25c-0.1875,-0.199219 -0.445312,-0.308594 -0.71875,-0.3125c-0.03125,0 -0.0625,0 -0.09375,0c-0.03125,0 -0.0625,0 -0.09375,0zm-9.78125,4.09375c-0.042969,0.007813 -0.085937,0.019531 -0.125,0.03125c-0.464844,0.105469 -0.792969,0.523438 -0.78125,1l0,6c-0.003906,0.359375 0.183594,0.695313 0.496094,0.878906c0.3125,0.179688 0.695312,0.179688 1.007812,0c0.3125,-0.183593 0.5,-0.519531 0.496094,-0.878906l0,-6c0.011719,-0.289062 -0.105469,-0.566406 -0.3125,-0.761719c-0.210937,-0.199218 -0.496094,-0.296875 -0.78125,-0.269531z"/>
 </g>
</svg>